<?xml version="1.0"?>
<svg xmlns="http://www.w3.org/2000/svg" xmlns:xlink="http://www.w3.org/1999/xlink" xmlns:svgjs="http://svgjs.com/svgjs" version="1.1" width="512" height="512" x="0" y="0" viewBox="0 0 512 512" style="enable-background:new 0 0 512 512" xml:space="preserve" class=""><g transform="matrix(0.7899999999999999,0,0,0.7899999999999999,53.76000000000002,53.76000000000002)"><path xmlns="http://www.w3.org/2000/svg" d="m40 168h160v48h-160z" fill="#8c5237" data-original="#8c5237" style="" class=""/><path xmlns="http://www.w3.org/2000/svg" d="m232 40h32a32 32 0 0 1 32 32v400a0 0 0 0 1 0 0h-96a0 0 0 0 1 0 0v-400a32 32 0 0 1 32-32z" fill="#ad6643" data-original="#ad6643" style="" class=""/><g xmlns="http://www.w3.org/2000/svg" fill="#d49073"><path d="m248 136h-48v-32h48a16 16 0 0 1 16 16 16 16 0 0 1 -16 16z" fill="#d49073" data-original="#d49073" style="" class=""/><path d="m248 216h-48v-32h48a16 16 0 0 1 16 16 16 16 0 0 1 -16 16z" fill="#d49073" data-original="#d49073" style="" class=""/><path d="m248 296h-48v-32h48a16 16 0 0 1 16 16 16 16 0 0 1 -16 16z" fill="#d49073" data-original="#d49073" style="" class=""/><path d="m248 376h-48v-32h48a16 16 0 0 1 16 16 16 16 0 0 1 -16 16z" fill="#d49073" data-original="#d49073" style="" class=""/></g><path xmlns="http://www.w3.org/2000/svg" d="m200 200v272h-192v-208l32-64z" fill="#ad6643" data-original="#ad6643" style="" class=""/><path xmlns="http://www.w3.org/2000/svg" d="m232 264v208h-64v-208l32-64z" fill="#8c5237" data-original="#8c5237" style="" class=""/><path xmlns="http://www.w3.org/2000/svg" d="m208 216v256h-16v-256l8-16z" fill="#7a4830" data-original="#7a4830" style=""/><path xmlns="http://www.w3.org/2000/svg" d="m48 320a8 8 0 0 1 -8-8v-16a8 8 0 0 1 16 0v16a8 8 0 0 1 -8 8z" fill="#e09f2c" data-original="#e09f2c" style=""/><path xmlns="http://www.w3.org/2000/svg" d="m128 320a8 8 0 0 1 -8-8v-16a8 8 0 0 1 16 0v16a8 8 0 0 1 -8 8z" fill="#e09f2c" data-original="#e09f2c" style=""/><path xmlns="http://www.w3.org/2000/svg" d="m88 448a8 8 0 0 1 -8-8v-144a8 8 0 0 1 16 0v144a8 8 0 0 1 -8 8z" fill="#e09f2c" data-original="#e09f2c" style=""/><path xmlns="http://www.w3.org/2000/svg" d="m144 264a8 8 0 0 1 -8 8h-128v-8l4-8h124a8 8 0 0 1 8 8z" fill="#8c5237" data-original="#8c5237" style="" class=""/><path xmlns="http://www.w3.org/2000/svg" d="m392 200h-16v-112h-48v112h-16a32 32 0 0 0 -32 32v224a16 16 0 0 0 16 16h112a16 16 0 0 0 16-16v-224a32 32 0 0 0 -32-32z" fill="#eb423f" data-original="#eb423f" style=""/><path xmlns="http://www.w3.org/2000/svg" d="m328 88h48v48h-48z" fill="#7a4830" data-original="#7a4830" style=""/><path xmlns="http://www.w3.org/2000/svg" d="m280 280h144v112h-144z" fill="#7a4830" data-original="#7a4830" style=""/><ellipse xmlns="http://www.w3.org/2000/svg" cx="352" cy="336" fill="#ad6643" rx="40" ry="24" data-original="#ad6643" style="" class=""/><circle xmlns="http://www.w3.org/2000/svg" cx="256" cy="416" fill="#f7b030" r="56" data-original="#f7b030" style=""/><path xmlns="http://www.w3.org/2000/svg" d="m288 328h32a0 0 0 0 1 0 0 32 32 0 0 1 -32 32h-32a0 0 0 0 1 0 0 32 32 0 0 1 32-32z" fill="#b1bd70" data-original="#b1bd70" style="" class=""/><path xmlns="http://www.w3.org/2000/svg" d="m40 312h32a16 16 0 0 1 16 16v16a0 0 0 0 1 0 0h-32a16 16 0 0 1 -16-16v-16a0 0 0 0 1 0 0z" fill="#ffd33a" data-original="#ffd33a" style="" class=""/><path xmlns="http://www.w3.org/2000/svg" d="m104 312h32a0 0 0 0 1 0 0v16a16 16 0 0 1 -16 16h-32a0 0 0 0 1 0 0v-16a16 16 0 0 1 16-16z" fill="#f7b030" transform="matrix(-1 0 0 -1 224 656)" data-original="#f7b030" style=""/><path xmlns="http://www.w3.org/2000/svg" d="m40 344h32a16 16 0 0 1 16 16v16a0 0 0 0 1 0 0h-32a16 16 0 0 1 -16-16v-16a0 0 0 0 1 0 0z" fill="#f7b030" data-original="#f7b030" style=""/><path xmlns="http://www.w3.org/2000/svg" d="m104 344h32a0 0 0 0 1 0 0v16a16 16 0 0 1 -16 16h-32a0 0 0 0 1 0 0v-16a16 16 0 0 1 16-16z" fill="#ffd33a" transform="matrix(-1 0 0 -1 224 720)" data-original="#ffd33a" style="" class=""/><path xmlns="http://www.w3.org/2000/svg" d="m40 376h32a16 16 0 0 1 16 16v16a0 0 0 0 1 0 0h-32a16 16 0 0 1 -16-16v-16a0 0 0 0 1 0 0z" fill="#ffd33a" data-original="#ffd33a" style="" class=""/><path xmlns="http://www.w3.org/2000/svg" d="m104 376h32a0 0 0 0 1 0 0v16a16 16 0 0 1 -16 16h-32a0 0 0 0 1 0 0v-16a16 16 0 0 1 16-16z" fill="#f7b030" transform="matrix(-1 0 0 -1 224 784)" data-original="#f7b030" style=""/><path xmlns="http://www.w3.org/2000/svg" d="m376 312 40-32h48l40 32v160h-128z" fill="#499154" data-original="#499154" style="" class=""/><path xmlns="http://www.w3.org/2000/svg" d="m440 384a8 8 0 1 1 8-8 8 8 0 0 0 16 0 24.039 24.039 0 0 0 -16-22.624v-9.376a8 8 0 0 0 -16 0v9.376a24 24 0 0 0 8 46.624 8 8 0 1 1 -8 8 8 8 0 0 0 -16 0 24.039 24.039 0 0 0 16 22.624v9.376a8 8 0 0 0 16 0v-9.376a24 24 0 0 0 -8-46.624z" fill="#b1bd70" data-original="#b1bd70" style="" class=""/><circle xmlns="http://www.w3.org/2000/svg" cx="440" cy="312" fill="#e9eef2" r="8" data-original="#e9eef2" style="" class=""/></g></svg>
